HIERARCHY
ROOT Hips
{
  OFFSET 5.80788e-005 67.184 3.4734
  CHANNELS 6 Xposition Yposition Zposition Zrotation Xrotation Yrotation
  JOINT Chest
  {
    OFFSET 0 8.7983 -4.7612
    CHANNELS 3 Zrotation Xrotation Yrotation
    JOINT Chest2
    {
      OFFSET 0 8.0291 0.4195
      CHANNELS 3 Zrotation Xrotation Yrotation
      JOINT Chest3
      {
        OFFSET 0 9.9351 -2.2114
        CHANNELS 3 Zrotation Xrotation Yrotation
        JOINT Neck
        {
          OFFSET 0 22.3885 -0.4656
          CHANNELS 3 Zrotation Xrotation Yrotation
          JOINT Head
          {
            OFFSET -0.0001 12.643 3.4389
            CHANNELS 3 Zrotation Xrotation Yrotation
            End Site
            {
              OFFSET 0.0001 17.6655 0.5274
            }
          }
        }
        JOINT LeftCollar
        {
          OFFSET 2.2603 21.606 7.4023
          CHANNELS 3 Zrotation Xrotation Yrotation
          JOINT LeftShoulder
          {
            OFFSET 13.5163 -1.1332 -5.0146
            CHANNELS 3 Zrotation Xrotation Yrotation
            JOINT LeftElbow
            {
              OFFSET -0.0995 -28.05 -0.2431
              CHANNELS 3 Zrotation Xrotation Yrotation
              JOINT LeftWrist
              {
                OFFSET 0.0679 -23.3996 -0.1402
                CHANNELS 3 Zrotation Xrotation Yrotation
                JOINT LeftFinger1
                {
                  OFFSET 0.7932 -9.069 2.5189
                  CHANNELS 3 Zrotation Xrotation Yrotation
                  JOINT LeftFinger11
                  {
                    OFFSET -0.8272 -3.3923 0.5977
                    CHANNELS 3 Zrotation Xrotation Yrotation
                    JOINT LeftFinger12
                    {
                      OFFSET -0.5649 -2.3158 0.4082
                      CHANNELS 3 Zrotation Xrotation Yrotation
                      End Site
                      {
                        OFFSET -0.4919 -1.6479 0.2673
                      }
                    }
                  }
                }
                JOINT LeftFinger2
                {
                  OFFSET 0.9159 -9.2044 0.2193
                  CHANNELS 3 Zrotation Xrotation Yrotation
                  JOINT LeftFinger21
                  {
                    OFFSET 0.0117 -4.1944 -0.0248
                    CHANNELS 3 Zrotation Xrotation Yrotation
                    JOINT LeftFinger22
                    {
                      OFFSET 0.0071 -2.3249 -0.0142
                      CHANNELS 3 Zrotation Xrotation Yrotation
                      End Site
                      {
                        OFFSET -0.1475 -2.0882 0.0028
                      }
                    }
                  }
                }
                JOINT LeftFinger3
                {
                  OFFSET 0.6113 -8.7231 -2.0637
                  CHANNELS 3 Zrotation Xrotation Yrotation
                  JOINT LeftFinger31
                  {
                    OFFSET -0.1927 -3.8059 -0.2383
                    CHANNELS 3 Zrotation Xrotation Yrotation
                    JOINT LeftFinger32
                    {
                      OFFSET -0.1091 -2.1688 -0.1362
                      CHANNELS 3 Zrotation Xrotation Yrotation
                      End Site
                      {
                        OFFSET -0.2358 -1.9176 -0.0906
                      }
                    }
                  }
                }
                JOINT LeftFinger4
                {
                  OFFSET -0.6151 -8.0947 -3.5641
                  CHANNELS 3 Zrotation Xrotation Yrotation
                  JOINT LeftFinger41
                  {
                    OFFSET -0.4882 -2.341 -0.6462
                    CHANNELS 3 Zrotation Xrotation Yrotation
                    JOINT LeftFinger42
                    {
                      OFFSET -0.3575 -1.7167 -0.4742
                      CHANNELS 3 Zrotation Xrotation Yrotation
                      End Site
                      {
                        OFFSET -0.4187 -1.5237 -0.3496
                      }
                    }
                  }
                }
                JOINT LeftFinger0
                {
                  OFFSET -1.42 -1.8761 1.4223
                  CHANNELS 3 Zrotation Xrotation Yrotation
                  JOINT LeftFinger01
                  {
                    OFFSET -1.1471 -3.4929 2.6334
                    CHANNELS 3 Zrotation Xrotation Yrotation
                    JOINT LeftFinger02
                    {
                      OFFSET -0.823 -2.3 1.6571
                      CHANNELS 3 Zrotation Xrotation Yrotation
                      End Site
                      {
                        OFFSET -0.5822 -1.6914 1.1582
                      }
                    }
                  }
                }
              }
            }
          }
        }
        JOINT RightCollar
        {
          OFFSET -2.2603 21.606 7.4023
          CHANNELS 3 Zrotation Xrotation Yrotation
          JOINT RightShoulder
          {
            OFFSET -13.5187 -1.1334 -5.0155
            CHANNELS 3 Zrotation Xrotation Yrotation
            JOINT RightElbow
            {
              OFFSET 0.0994 -28.0499 -0.2431
              CHANNELS 3 Zrotation Xrotation Yrotation
              JOINT RightWrist
              {
                OFFSET -0.0679 -23.3996 -0.1402
                CHANNELS 3 Zrotation Xrotation Yrotation
                JOINT RightFinger1
                {
                  OFFSET -0.7932 -9.0691 2.5189
                  CHANNELS 3 Zrotation Xrotation Yrotation
                  JOINT RightFinger11
                  {
                    OFFSET 0.8272 -3.3923 0.5977
                    CHANNELS 3 Zrotation Xrotation Yrotation
                    JOINT RightFinger12
                    {
                      OFFSET 0.565 -2.3158 0.4082
                      CHANNELS 3 Zrotation Xrotation Yrotation
                      End Site
                      {
                        OFFSET 0.4919 -1.6479 0.2673
                      }
                    }
                  }
                }
                JOINT RightFinger2
                {
                  OFFSET -0.916 -9.2044 0.2193
                  CHANNELS 3 Zrotation Xrotation Yrotation
                  JOINT RightFinger21
                  {
                    OFFSET -0.0117 -4.1944 -0.0248
                    CHANNELS 3 Zrotation Xrotation Yrotation
                    JOINT RightFinger22
                    {
                      OFFSET -0.0071 -2.3249 -0.0142
                      CHANNELS 3 Zrotation Xrotation Yrotation
                      End Site
                      {
                        OFFSET 0.1475 -2.0882 0.0028
                      }
                    }
                  }
                }
                JOINT RightFinger3
                {
                  OFFSET -0.6113 -8.7231 -2.0637
                  CHANNELS 3 Zrotation Xrotation Yrotation
                  JOINT RightFinger31
                  {
                    OFFSET 0.1927 -3.8059 -0.2383
                    CHANNELS 3 Zrotation Xrotation Yrotation
                    JOINT RightFinger32
                    {
                      OFFSET 0.1091 -2.1688 -0.1362
                      CHANNELS 3 Zrotation Xrotation Yrotation
                      End Site
                      {
                        OFFSET 0.2358 -1.9176 -0.0906
                      }
                    }
                  }
                }
                JOINT RightFinger4
                {
                  OFFSET 0.6151 -8.0947 -3.564
                  CHANNELS 3 Zrotation Xrotation Yrotation
                  JOINT RightFinger41
                  {
                    OFFSET 0.4882 -2.341 -0.6462
                    CHANNELS 3 Zrotation Xrotation Yrotation
                    JOINT RightFinger42
                    {
                      OFFSET 0.3574 -1.7166 -0.4742
                      CHANNELS 3 Zrotation Xrotation Yrotation
                      End Site
                      {
                        OFFSET 0.4187 -1.5237 -0.3496
                      }
                    }
                  }
                }
                JOINT RightFinger0
                {
                  OFFSET 1.4199 -1.8761 1.4221
                  CHANNELS 3 Zrotation Xrotation Yrotation
                  JOINT RightFinger01
                  {
                    OFFSET 1.1472 -3.4929 2.6336
                    CHANNELS 3 Zrotation Xrotation Yrotation
                    JOINT RightFinger02
                    {
                      OFFSET 0.8229 -2.3 1.6571
                      CHANNELS 3 Zrotation Xrotation Yrotation
                      End Site
                      {
                        OFFSET 0.5822 -1.6914 1.1582
                      }
                    }
                  }
                }
              }
            }
          }
        }
      }
    }
  }
  JOINT RightHip
  {
    OFFSET -9.412 3.9771 -0.7758
    CHANNELS 3 Zrotation Xrotation Yrotation
    JOINT RightKnee
    {
      OFFSET -0.7531 -40.938 0
      CHANNELS 3 Zrotation Xrotation Yrotation
      JOINT RightAnkle
      {
        OFFSET 0 -40.1986 0
        CHANNELS 3 Zrotation Xrotation Yrotation
        JOINT RightToe
        {
          OFFSET 0 -4.4182 9.239
          CHANNELS 3 Zrotation Xrotation Yrotation
          End Site
          {
            OFFSET 0 0 6.1981
          }
        }
      }
    }
  }
  JOINT LeftHip
  {
    OFFSET 9.4119 3.9773 -0.7758
    CHANNELS 3 Zrotation Xrotation Yrotation
    JOINT LeftKnee
    {
      OFFSET 0.7532 -40.9383 0
      CHANNELS 3 Zrotation Xrotation Yrotation
      JOINT LeftAnkle
      {
        OFFSET 0 -40.1986 0
        CHANNELS 3 Zrotation Xrotation Yrotation
        JOINT LeftToe
        {
          OFFSET 0 -4.4182 9.239
          CHANNELS 3 Zrotation Xrotation Yrotation
          End Site
          {
            OFFSET 0 0 6.1981
          }
        }
      }
    }
  }
}
MOTION
Frames:	6
Frame Time:	0.0333333
0.184998 1.69518 8.12627 180 -89.9981 180 -0.0459219 8.4087 -0.0679567 -0.0829986 16.8175 -0.131172 -0.0829987 16.8175 -0.131172 2.85572e-007 17.9982 8.58019e-007 -0.00233218 2.64832 14.9968 0.603948 0.432873 -3.89422 3.07322 33.5958 25.3981 -22.0284 -65.5596 -44.7736 -5.9061 1.87661 -23.737 -5.17842e-006 6.28277e-006 6.05565e-006 1.64578e-006 5.04939e-007 4.54468e-007 -1.19271e-015 0 2.26118e-015 -5.17842e-006 6.28277e-006 6.05565e-006 -0.0128055 0.00232138 8.38111e-005 2.5842e-015 3.18055e-015 3.60297e-015 -5.17842e-006 6.28277e-006 6.05565e-006 -0.0160598 0.00300326 0.000859264 2.38542e-015 0 7.92654e-015 -5.17842e-006 6.28277e-006 6.05565e-006 -0.0125693 0.00311923 0.00282717 -9.93923e-017 -6.36111e-015 -1.73937e-015 -5.17842e-006 6.28277e-006 6.05565e-006 1.64578e-006 5.04939e-007 4.54468e-007 -1.19271e-015 0 2.26118e-015 -1.43854 0.726649 -1.56488 -6.47105 34.3901 -18.449 20.7127 -67.1565 42.8979 5.47274 1.36273 23.9034 1.98785e-015 6.36111e-015 -4.96962e-017 -3.92946e-006 1.66186e-006 1.36844e-006 -1.98785e-015 0 1.14301e-015 1.98785e-015 6.36111e-015 -4.96962e-017 0.0129505 0.00231821 -8.04421e-005 -1.63532e-006 3.1021e-006 -4.90394e-007 1.98785e-015 6.36111e-015 -4.96962e-017 0.0163456 0.00302988 -0.000867146 -3.97569e-016 -3.18055e-015 -6.4605e-015 1.98785e-015 6.36111e-015 -4.96962e-017 0.0145856 0.00366206 -0.00325597 -3.09255e-006 5.35287e-006 4.0624e-006 1.98785e-015 6.36111e-015 -4.96962e-017 -3.92946e-006 1.66186e-006 1.36844e-006 -1.98785e-015 0 1.14301e-015 -37.3852 -42.1137 -44.8057 176.874 45.9214 177.721 -6.98568 10.1881 -3.37947 -3.03991e-006 -1.03217e-006 4.51238e-007 16.5608 2.56673 1.06264 -2.00387 8.19108 0.618598 8.83182 12.3643 0.991472 -5.16385e-006 2.71478e-005 -9.86209e-006 
0.184998 1.69518 8.12627 180 -89.9981 180 -0.0451089 8.36083 -0.0666864 -0.0815843 16.7218 -0.128729 -0.0815845 16.7218 -0.128729 2.74787e-007 17.9983 7.3344e-007 -0.00233226 2.42303 14.9971 0.603949 0.432885 -3.89422 3.07321 33.5957 25.3981 -21.7723 -65.3429 -44.3688 -5.90609 1.87657 -23.737 1.78906e-015 3.18055e-015 2.75814e-015 1.09332e-015 0 -1.01877e-014 -3.37179e-006 1.17145e-005 6.38587e-006 1.78906e-015 3.18055e-015 2.75814e-015 -0.012805 0.0023295 9.0759e-005 -6.95746e-016 9.54166e-015 4.05024e-015 1.78906e-015 3.18055e-015 2.75814e-015 -0.0160576 0.00300537 0.000854553 -3.45443e-006 5.89826e-007 -7.94554e-007 1.78906e-015 3.18055e-015 2.75814e-015 -0.0125675 0.0031317 0.00282423 3.88994e-006 -1.27251e-005 -8.62672e-006 1.78906e-015 3.18055e-015 2.75814e-015 1.09332e-015 0 -1.01877e-014 -3.37179e-006 1.17145e-005 6.38587e-006 -1.43854 0.726674 -1.56488 -6.4711 34.3901 -18.449 20.4885 -66.9537 42.5248 5.47274 1.36275 23.9034 2.18663e-015 0 -3.72721e-015 -9.81363e-006 -1.49509e-005 -2.93572e-006 9.63435e-006 1.3593e-005 -2.08807e-006 2.18663e-015 0 -3.72721e-015 0.0129448 0.00230638 -8.68798e-005 7.81758e-006 9.14455e-006 -7.60081e-006 2.18663e-015 0 -3.72721e-015 0.0163506 0.003041 -0.000882131 1.63559e-006 -1.54614e-006 4.89373e-007 2.18663e-015 0 -3.72721e-015 0.0145892 0.0036785 -0.00326509 2.40391e-006 -1.26332e-006 3.0618e-006 2.18663e-015 0 -3.72721e-015 -9.81363e-006 -1.49509e-005 -2.93572e-006 9.63435e-006 1.3593e-005 -2.08807e-006 -37.3852 -42.1137 -44.8057 176.874 45.9214 177.721 -6.98568 10.1881 -3.37947 -3.03991e-006 -1.03217e-006 4.51238e-007 16.5608 2.56673 1.06264 -2.00387 8.19108 0.618598 8.83182 12.3643 0.991472 -5.16385e-006 2.71478e-005 -9.86209e-006 
0.184998 1.69518 8.12627 -180 -89.9981 -180 -0.0442943 8.31292 -0.0654162 -0.0801651 16.626 -0.126286 -0.0801653 16.626 -0.126286 2.69737e-007 17.9983 7.50862e-007 -0.00233387 2.19763 14.9975 0.603949 0.432887 -3.89422 3.07327 33.5957 25.3981 -21.522 -65.1255 -43.9697 -5.90609 1.87659 -23.737 5.46658e-015 0 -8.97016e-015 2.38542e-015 3.18055e-015 -9.01985e-015 5.76476e-015 3.18055e-015 -8.52289e-015 5.46658e-015 0 -8.97016e-015 -0.0127962 0.0023231 8.01811e-005 1.59028e-015 6.36111e-015 6.95746e-016 5.46658e-015 0 -8.97016e-015 -0.0160232 0.00299205 0.00085424 4.25539e-006 3.81611e-008 3.72891e-006 5.46658e-015 0 -8.97016e-015 -0.0125979 0.00312684 0.00282803 4.49451e-006 5.13777e-006 -3.66895e-006 5.46658e-015 0 -8.97016e-015 2.38542e-015 3.18055e-015 -9.01985e-015 5.76476e-015 3.18055e-015 -8.52289e-015 -1.43854 0.726669 -1.56488 -6.4711 34.3901 -18.449 20.2693 -66.7502 42.1567 5.47273 1.36275 23.9034 1.96648e-006 -4.53456e-006 -7.10656e-006 1.77926e-006 8.26352e-006 7.10181e-007 1.78906e-015 -4.91152e-009 1.73937e-015 1.96648e-006 -4.53456e-006 -7.10656e-006 0.0129308 0.00231778 -8.79885e-005 5.74615e-006 -1.90319e-007 4.09998e-006 1.96648e-006 -4.53456e-006 -7.10656e-006 0.0162884 0.00302463 -0.000869336 3.45437e-006 1.98055e-006 5.9805e-006 1.96648e-006 -4.53456e-006 -7.10656e-006 0.0145755 0.00367867 -0.00325182 2.98177e-015 0 4.47266e-015 1.96648e-006 -4.53456e-006 -7.10656e-006 1.77926e-006 8.26352e-006 7.10181e-007 1.78906e-015 -4.91152e-009 1.73937e-015 -37.3852 -42.1137 -44.8057 176.874 45.9214 177.721 -6.98568 10.1881 -3.37947 -3.03991e-006 -1.03217e-006 4.51238e-007 16.5608 2.56673 1.06264 -2.00387 8.19108 0.618598 8.83182 12.3643 0.991472 -5.16385e-006 2.71478e-005 -9.86209e-006 
0.184998 1.69518 8.12627 -179.999 -89.9981 -179.999 -0.0434781 8.26506 -0.0641463 -0.0787409 16.5302 -0.123844 -0.0787411 16.5302 -0.123844 2.8084e-007 17.9983 7.55178e-007 -0.00229375 1.97221 14.9968 0.603949 0.43288 -3.89422 3.07324 33.5957 25.3981 -21.2773 -64.9073 -43.576 -5.90606 1.87659 -23.737 -3.18055e-015 0 -3.05631e-015 1.48749e-006 -1.50807e-006 7.74379e-006 3.008e-006 2.72975e-006 -4.2985e-006 -3.18055e-015 0 -3.05631e-015 -0.0128026 0.00231911 9.29346e-005 3.45312e-006 2.94804e-006 7.12834e-007 -3.18055e-015 0 -3.05631e-015 -0.016065 0.00300509 0.000855277 7.54808e-006 -6.00296e-006 4.64641e-006 -3.18055e-015 0 -3.05631e-015 -0.0125774 0.00312083 0.00282816 -1.6112e-007 1.94953e-006 1.95658e-007 -3.18055e-015 0 -3.05631e-015 1.48749e-006 -1.50807e-006 7.74379e-006 3.008e-006 2.72975e-006 -4.2985e-006 -1.43854 0.726659 -1.56488 -6.4711 34.3901 -18.449 20.0552 -66.5462 41.7936 5.47273 1.36269 23.9034 2.72999e-006 7.34156e-007 8.20677e-006 7.95139e-016 -3.18055e-015 -2.68359e-015 9.8231e-007 -1.13928e-007 2.8658e-006 2.72999e-006 7.34156e-007 8.20677e-006 0.0129477 0.00231099 -8.83575e-005 5.96132e-006 1.52661e-005 4.45764e-006 2.72999e-006 7.34156e-007 8.20677e-006 0.0163395 0.00303779 -0.000873907 2.43265e-006 6.76889e-006 -1.63089e-006 2.72999e-006 7.34156e-007 8.20677e-006 0.0146023 0.00367921 -0.00326223 8.97743e-006 1.23139e-005 3.18343e-007 2.72999e-006 7.34156e-007 8.20677e-006 7.95139e-016 -3.18055e-015 -2.68359e-015 9.8231e-007 -1.13928e-007 2.8658e-006 -37.3852 -42.1137 -44.8057 176.874 45.9214 177.721 -6.98568 10.1881 -3.37947 -3.03991e-006 -1.03217e-006 4.51238e-007 16.5608 2.56673 1.06264 -2.00387 8.19108 0.618598 8.83182 12.3643 0.991472 -5.16385e-006 2.71478e-005 -9.86209e-006 
0.184998 1.69518 8.12627 -180 -89.9981 -180 -0.0426603 8.21715 -0.0628766 -0.0773117 16.4344 -0.121402 -0.0773119 16.4344 -0.121402 2.62954e-007 17.9983 8.05395e-007 -0.00223275 1.74672 14.9953 0.603948 0.43288 -3.89422 3.07323 33.5957 25.3981 -21.0379 -64.6883 -43.1875 -5.90606 1.87654 -23.737 -0 0 1.05107e-014 2.88238e-015 -3.18055e-015 7.65321e-015 -6.95746e-016 -3.18055e-015 1.26725e-015 -0 0 1.05107e-014 -0.0128429 0.00233837 9.3989e-005 -4.96962e-016 -3.18055e-015 -3.40419e-015 -0 0 1.05107e-014 -0.0160441 0.00301215 0.000866451 5.38302e-006 -1.41629e-006 6.35179e-006 -0 0 1.05107e-014 -0.012597 0.00313395 0.0028255 -3.97569e-016 3.18055e-015 6.11263e-015 -0 0 1.05107e-014 2.88238e-015 -3.18055e-015 7.65321e-015 -6.95746e-016 -3.18055e-015 1.26725e-015 -1.43854 0.726677 -1.56488 -6.47104 34.3901 -18.449 19.8461 -66.3417 41.4353 5.47274 1.36274 23.9033 -1.63644e-006 6.1604e-007 -4.86002e-007 6.3595e-006 3.62748e-006 -3.02005e-006 -3.57812e-015 9.54166e-015 -0 -1.63644e-006 6.1604e-007 -4.86002e-007 0.0129353 0.00230672 -8.92586e-005 1.59028e-015 0 -1.88845e-015 -1.63644e-006 6.1604e-007 -4.86002e-007 0.0163092 0.00303398 -0.000867102 -1.98785e-016 -3.18055e-015 4.12478e-015 -1.63644e-006 6.1604e-007 -4.86002e-007 0.0145919 0.00368133 -0.00326096 -1.98785e-016 3.18055e-015 5.36719e-015 -1.63644e-006 6.1604e-007 -4.86002e-007 6.3595e-006 3.62748e-006 -3.02005e-006 -3.57812e-015 9.54166e-015 -0 -37.3852 -42.1137 -44.8057 176.874 45.9214 177.721 -6.98568 10.1881 -3.37947 -3.03991e-006 -1.03217e-006 4.51238e-007 16.5608 2.56673 1.06264 -2.00387 8.19108 0.618598 8.83182 12.3643 0.991472 -5.16385e-006 2.71478e-005 -9.86209e-006 
0.184998 1.69518 8.12627 -180 -89.9981 -180 -0.041841 8.16926 -0.0616072 -0.0758777 16.3386 -0.11896 -0.0758779 16.3386 -0.11896 2.27228e-007 17.9983 6.4582e-007 -0.00219144 1.52119 14.994 0.603948 0.432915 -3.89422 3.07326 33.5957 25.3981 -20.804 -64.4687 -42.8042 -5.90605 1.87656 -23.737 1.2921e-015 3.18055e-015 -6.03808e-015 -7.95139e-016 0 2.23633e-016 1.88845e-015 0 -9.46712e-015 1.2921e-015 3.18055e-015 -6.03808e-015 -0.0128279 0.00233063 9.31321e-005 -1.59028e-015 0 -2.98177e-016 1.2921e-015 3.18055e-015 -6.03808e-015 -0.0160493 0.00300515 0.000863047 -2.81387e-031 1.27222e-014 1.26725e-015 1.2921e-015 3.18055e-015 -6.03808e-015 -0.0126144 0.00312379 0.00284103 -6.58459e-006 4.72668e-006 -1.81423e-006 1.2921e-015 3.18055e-015 -6.03808e-015 -7.95139e-016 0 2.23633e-016 1.88845e-015 0 -9.46712e-015 -1.43854 0.726696 -1.56488 -6.47107 34.3901 -18.449 19.6417 -66.1365 41.0817 5.47271 1.3627 23.9033 -9.86183e-007 6.58964e-008 -2.88309e-006 -3.924e-006 1.54335e-006 1.42852e-006 1.98785e-016 4.99904e-009 -1.31198e-014 -9.86183e-007 6.58964e-008 -2.88309e-006 0.01298 0.00232533 -9.11051e-005 3.97569e-016 0 -1.94312e-014 -9.86183e-007 6.58964e-008 -2.88309e-006 0.016354 0.00303502 -0.000873727 -5.48945e-006 -4.68689e-006 1.11215e-006 -9.86183e-007 6.58964e-008 -2.88309e-006 0.0145909 0.00366707 -0.00326222 -1.63671e-006 6.12171e-007 -4.84958e-007 -9.86183e-007 6.58964e-008 -2.88309e-006 -3.924e-006 1.54335e-006 1.42852e-006 1.98785e-016 4.99904e-009 -1.31198e-014 -37.3852 -42.1137 -44.8057 176.874 45.9214 177.721 -6.98561 10.1881 -3.37947 3.00538e-006 -6.13248e-008 1.21995e-006 16.5608 2.56657 1.06264 -2.00386 8.19138 0.618603 8.8318 12.3642 0.991486 3.33905e-006 2.15107e-006 1.76039e-006 
